<svg class="illustration" width="1155" height="700" viewBox="0 0 1155 700" fill="none" xmlns="http://www.w3.org/2000/svg">
<path d="M779.23 190.19V191.11H734.7L734.52 190.19H779.23Z" fill="#A7A9AC"/>
<path d="M734.52 190.19L734.7 191.11H653.79V190.19H734.52Z" fill="#A7A9AC"/>
<path d="M653.79 190.19V191.11H341.06L340.88 190.19H653.79Z" fill="#A7A9AC"/>
<path fill-rule="evenodd" clip-rule="evenodd" d="M922.99 145.879H881.42V319.549H922.99V145.879ZM881.42 321.379H922.99V340.889H881.42V321.379ZM922.99 342.719H881.42V362.239H922.99V342.719ZM881.42 364.059H922.99V383.579H881.42V364.059ZM922.99 385.41H881.42V404.92H922.99V385.41ZM881.42 406.75H922.99V443.3H881.42V406.75ZM690.58 564.461H906.08C919.61 564.461 930.58 575.431 930.58 588.961C930.58 595.731 927.84 601.851 923.4 606.281C918.97 610.721 912.85 613.461 906.08 613.461H690.58C677.04 613.461 666.07 602.491 666.07 588.961C666.07 582.191 668.81 576.071 673.25 571.641C677.68 567.201 683.81 564.461 690.58 564.461ZM919.46 495.989V524.059H693.8V506.969H686.59V524.059H666.57V506.209C666.57 500.199 671.46 495.309 677.47 495.309H915.66C916.99 495.309 918.27 495.549 919.46 495.989ZM677.47 494.311H915.66C916.99 494.311 918.27 494.531 919.46 494.941V475.051H904.04C904.05 475.071 904.05 475.101 904.05 475.121C904.05 476.131 903.23 476.951 902.22 476.951H245.11C244.1 476.951 243.28 476.131 243.28 475.121C243.28 475.101 243.28 475.071 243.29 475.051H223.5V502.781C224.97 497.891 229.52 494.311 234.89 494.311H626.94C633.5 494.311 638.84 499.651 638.84 506.211V524.061H665.57V506.211C665.57 499.651 670.91 494.311 677.47 494.311ZM653.79 275.73H751.43H800.75H828.22C828.73 275.73 829.14 276.14 829.14 276.65C829.14 277.15 828.73 277.56 828.22 277.56H800.75H751.79H653.79H625.28C624.78 277.56 624.37 277.15 624.37 276.65C624.37 276.14 624.78 275.73 625.28 275.73H653.79ZM621.57 259.779H653.79H748.28H800.75H824.52C825.02 259.779 825.43 259.369 825.43 258.859C825.43 258.359 825.02 257.949 824.52 257.949H800.75H747.92H653.79H621.57C621.07 257.949 620.66 258.359 620.66 258.859C620.66 259.369 621.07 259.779 621.57 259.779ZM637.84 506.209V524.059H247.05V506.969H239.83V524.059H224V506.209C224 500.199 228.88 495.309 234.89 495.309H626.94C632.95 495.309 637.84 500.199 637.84 506.209ZM613.84 564.461H248C241.23 564.461 235.11 567.201 230.68 571.641C226.24 576.071 223.5 582.191 223.5 588.961C223.5 602.491 234.47 613.461 248 613.461H613.84C620.61 613.461 626.73 610.721 631.16 606.281C635.6 601.851 638.34 595.731 638.34 588.961C638.34 575.431 627.37 564.461 613.84 564.461ZM603.28 270.209C603.28 275.629 599.34 279.699 593.61 279.699C587.04 279.699 580.6 274.349 579.22 267.759C579.05 266.919 578.96 266.099 578.96 265.309C578.96 259.879 582.9 255.809 588.63 255.809C591.91 255.809 595.17 257.149 597.77 259.309C600.37 261.469 602.33 264.459 603.02 267.759C603.19 268.599 603.28 269.419 603.28 270.209Z" fill="#F1F2F2"/>
<path d="M501.34 258.08V257.62C501.6 257.62 501.8 257.83 501.8 258.08C501.8 258.33 501.6 258.54 501.34 258.54H354.39L354.3 258.08H501.34Z" fill="#A7A9AC"/>
<path d="M501.34 257.62V258.08H354.3L354.21 257.62H501.34Z" fill="#A7A9AC"/>
<path d="M447.92 238.15V237.69C448.17 237.69 448.37 237.89 448.37 238.15C448.37 238.4 448.17 238.6 447.92 238.6H350.45L350.36 238.15H447.92Z" fill="#A7A9AC"/>
<path d="M447.92 237.69V238.15H350.36L350.27 237.69H447.92Z" fill="#A7A9AC"/>
<path d="M442.83 218.21V217.75C443.09 217.75 443.29 217.96 443.29 218.21C443.29 218.46 443.09 218.67 442.83 218.67H346.51L346.42 218.21H442.83Z" fill="#A7A9AC"/>
<path d="M442.83 217.75V218.21H346.42L346.33 217.75H442.83Z" fill="#A7A9AC"/>
<path d="M368.63 185.25C370.563 185.25 372.13 183.683 372.13 181.75C372.13 179.817 370.563 178.25 368.63 178.25C366.697 178.25 365.13 179.817 365.13 181.75C365.13 183.683 366.697 185.25 368.63 185.25Z" fill="#58595B"/>
<path d="M354.3 258.08L354.39 258.54H304.34C304.09 258.54 303.89 258.33 303.89 258.08C303.89 257.83 304.09 257.62 304.34 257.62V258.08H354.3Z" fill="#A7A9AC"/>
<path d="M354.21 257.62L354.3 258.08H304.34V257.62H354.21Z" fill="#A7A9AC"/>
<path d="M350.36 238.15L350.45 238.6H300.95C300.7 238.6 300.49 238.4 300.49 238.15C300.49 237.89 300.7 237.69 300.95 237.69V238.15H350.36Z" fill="#A7A9AC"/>
<path d="M350.27 237.69L350.36 238.15H300.95V237.69H350.27Z" fill="#A7A9AC"/>
<path d="M346.42 218.21L346.51 218.67H295.87C295.61 218.67 295.41 218.46 295.41 218.21C295.41 217.96 295.61 217.75 295.87 217.75V218.21H346.42Z" fill="#A7A9AC"/>
<path d="M346.33 217.75L346.42 218.21H295.87V217.75H346.33Z" fill="#A7A9AC"/>
<path d="M340.88 190.19L341.06 191.11H314.04V190.19H340.88Z" fill="#A7A9AC"/>
<path fill-rule="evenodd" clip-rule="evenodd" d="M668.83 116.82H785.72C794.02 116.82 800.75 123.55 800.75 131.86V240.59H744.48L734.7 191.11H779.23V190.19H734.52L734.09 188.02C731.97 177.3 721.55 168.61 710.83 168.61H653.79V152.86C661.38 152.86 667.54 146.69 667.54 139.11C667.54 132.01 662.14 126.15 655.23 125.43C657.64 120.34 662.83 116.82 668.83 116.82ZM770.52 356.87C769.42 356.07 768.26 355.35 767.05 354.71L756.43 301.02H800.75V414.51C800.75 422.81 794.02 429.54 785.72 429.54H668.83C660.53 429.54 653.79 422.81 653.79 414.51V399.54H727.85L725.3 402.09L731.99 408.79L735.14 405.64C738.92 408.42 743.38 410.33 748.21 411.09V415.5H757.67V411.09C762.5 410.33 766.96 408.42 770.74 405.64L773.89 408.79L780.58 402.09L777.4 398.91C778.92 396.82 780.16 394.53 781.08 392.09C782 392.22 782.93 392.33 783.84 392.42L783.93 391.51C783.09 391.43 782.25 391.33 781.4 391.21C782.01 389.5 782.45 387.72 782.73 385.88H787.3V376.41H782.66C781.89 371.65 779.99 367.26 777.25 363.53L780.58 360.2L773.89 353.5L770.52 356.87ZM798.42 391.4C796.05 391.68 793.61 391.83 791.18 391.84V392.76C793.65 392.74 796.12 392.59 798.53 392.31L798.42 391.4ZM752.94 403.02C764.9 403.02 774.63 393.29 774.63 381.33C774.63 376.04 772.73 371.18 769.56 367.41L772.07 380.12C774.19 390.85 767.22 399.54 756.49 399.54H741.18C744.57 401.74 748.61 403.02 752.94 403.02ZM755.02 374.872C758.66 375.842 760.82 379.582 759.85 383.222C758.88 386.872 755.14 389.032 751.5 388.062C747.86 387.092 745.7 383.352 746.67 379.712C747.64 376.072 751.38 373.902 755.02 374.872ZM756.07 383.622C755.07 383.162 754.1 382.692 753.14 382.212L752.74 383.032C753.7 383.512 754.68 383.982 755.69 384.452L756.07 383.622ZM695.16 230.629V225.809H653.79H637.55V230.629H653.79H695.16ZM656.7 213.32H692.19V218.14H656.7V213.32ZM688.81 205.648V200.828H653.79H638.57V205.648H653.79H688.81ZM654.84 126.328C661.43 126.858 666.63 132.378 666.63 139.108C666.63 146.188 660.87 151.948 653.79 151.948V131.858C653.79 129.898 654.16 128.038 654.84 126.328ZM602.1 133.738H293.74V134.738H602.1V133.738ZM532.44 341.77H590.06V346.58H532.44V341.77ZM587.08 329.281H551.6V334.091H587.08V329.281ZM533.46 316.789H583.7V321.599H533.46V316.789ZM574.21 145.379H265.85V146.379H574.21V145.379ZM458.02 291.358L457.98 292.268C457.59 292.248 457.2 292.248 456.81 292.248H450.64V291.328H456.81C457.22 291.328 457.62 291.338 458.02 291.358ZM474.14 297.141C474.03 297.431 473.89 297.701 473.73 297.961C480.53 303.181 484.69 311.361 484.69 320.121C484.69 335.491 472.18 348.001 456.81 348.001H372.08H351.48H346.91C346.92 348.151 346.93 348.301 346.93 348.451C346.93 348.611 346.92 348.761 346.91 348.911H351.48H372.26H456.81C472.68 348.911 485.6 336.001 485.6 320.121C485.6 311.011 481.24 302.511 474.14 297.141ZM447.92 229.07V237.69H350.27H300.95V229.07H348.57H447.92ZM443.28 291.328H435.91V292.248H443.28V291.328ZM421.19 291.328H428.55V292.248H421.19V291.328ZM413.82 291.328H406.46V292.248H413.82V291.328ZM401.57 181.75C401.57 183.683 400.003 185.25 398.07 185.25C396.137 185.25 394.57 183.683 394.57 181.75C394.57 179.817 396.137 178.25 398.07 178.25C400.003 178.25 401.57 179.817 401.57 181.75ZM399.1 291.328H391.73V292.248H399.1V291.328ZM377.01 291.328H384.37V292.248H377.01V291.328ZM369.64 291.328H362.28V292.248H369.64V291.328ZM347.55 291.328H354.92V292.248H347.55V291.328ZM304.34 249.012V257.622H354.21H501.34V249.012H352.51H304.34ZM295.87 217.751V209.141H344.63H442.83V217.751H346.33H295.87ZM340.52 369.16H296.6V419.89H340.52V369.16ZM296.6 359.879H340.52V364.379H296.6V359.879ZM340.19 291.328H332.83V292.248H340.19V291.328ZM321.69 348H329.05V348.91H321.69V348ZM325.46 291.328H318.1V292.248H325.46V291.328ZM306.96 348H314.33V348.91H306.96V348ZM310.74 291.328H303.37V292.248H310.74V291.328ZM292.24 348H299.6V348.91H292.24V348ZM296.01 291.328H288.65V292.248H296.01V291.328ZM277.48 348.82L277.55 347.91C278.27 347.97 279.01 348 279.74 348H284.87V348.91H279.74C278.99 348.91 278.22 348.88 277.48 348.82ZM281.28 292.248V291.328H279.74C277.76 291.328 275.79 291.528 273.87 291.928L274.06 292.828C275.91 292.438 277.83 292.248 279.74 292.248H281.28ZM270.18 347.29C267.83 346.46 265.59 345.32 263.52 343.91L264.04 343.16C266.04 344.52 268.21 345.62 270.48 346.42L270.18 347.29ZM266.83 294.391C264.6 295.501 262.52 296.911 260.65 298.571L261.26 299.251C263.07 297.651 265.08 296.291 267.24 295.201L266.83 294.391ZM257.96 338.95C256.32 337.06 254.94 334.96 253.85 332.72L254.67 332.32C255.73 334.49 257.06 336.52 258.65 338.35L257.96 338.95ZM255.75 304.191C254.37 306.281 253.26 308.531 252.46 310.891L253.33 311.181C254.1 308.901 255.17 306.721 256.52 304.701L255.75 304.191ZM251.01 318.211L251.93 318.271C251.89 318.881 251.87 319.501 251.87 320.121C251.87 321.921 252.04 323.731 252.38 325.481L251.48 325.651C251.13 323.841 250.95 321.981 250.95 320.121C250.95 319.481 250.97 318.841 251.01 318.211Z" fill="#F1F1F2"/>
<path fill-rule="evenodd" clip-rule="evenodd" d="M333.64 99.87C336.78 99.87 339.4 97.62 339.96 94.63H338.68L338.67 93.72H340.06C340.07 93.63 340.07 93.53 340.07 93.43C340.07 89.88 337.19 87 333.64 87C330.08 87 327.2 89.88 327.2 93.43C327.2 96.99 330.08 99.87 333.64 99.87ZM383.35 185.25C385.283 185.25 386.85 183.683 386.85 181.75C386.85 179.817 385.283 178.25 383.35 178.25C381.417 178.25 379.85 179.817 379.85 181.75C379.85 183.683 381.417 185.25 383.35 185.25ZM582.64 301.02C571.89 301.02 561.36 292.27 559.11 281.48L554.66 260.13C552.41 249.34 559.3 240.59 570.05 240.59H653.79H744.48H800.75H828.01C838.76 240.59 849.3 249.34 851.55 260.13L856 281.48C858.25 292.27 851.36 301.02 840.61 301.02H800.75H756.43H653.79H582.64ZM829.14 276.65C829.14 276.14 828.73 275.73 828.22 275.73H800.75H751.43H653.79H625.28C624.78 275.73 624.37 276.14 624.37 276.65C624.37 277.15 624.78 277.56 625.28 277.56H653.79H751.79H800.75H828.22C828.73 277.56 829.14 277.15 829.14 276.65ZM653.79 257.95H621.57C621.07 257.95 620.66 258.36 620.66 258.86C620.66 259.37 621.07 259.78 621.57 259.78H653.79H748.28H800.75H824.52C825.02 259.78 825.43 259.37 825.43 258.86C825.43 258.36 825.02 257.95 824.52 257.95H800.75H747.92H653.79ZM597.77 259.31C595.17 257.15 591.91 255.81 588.63 255.81C582.9 255.81 578.96 259.88 578.96 265.31C578.96 266.1 579.05 266.92 579.22 267.76C580.6 274.35 587.04 279.7 593.61 279.7C599.34 279.7 603.28 275.63 603.28 270.21C603.28 269.42 603.19 268.6 603.02 267.76C602.33 264.46 600.37 261.47 597.77 259.31ZM707.61 368.399V372.899H698.27V368.399C695.71 367.849 693.33 366.839 691.2 365.449L688 368.649L681.4 362.039L684.62 358.819C683.27 356.699 682.28 354.319 681.74 351.769H677.14V342.429H681.8C682.36 339.919 683.37 337.589 684.72 335.499L681.4 332.169L688 325.559L691.36 328.919C693.45 327.589 695.78 326.619 698.27 326.079V321.309H707.61V326.079C710.1 326.619 712.43 327.589 714.51 328.919L717.87 325.559L724.48 332.169L721.15 335.499C722.51 337.589 723.51 339.919 724.07 342.429H728.73V351.769H724.13C723.6 354.309 722.61 356.689 721.25 358.809L724.48 362.039L717.87 368.649L714.68 365.449C712.56 366.829 710.17 367.849 707.61 368.399ZM702.94 331.639C694.33 331.639 687.34 338.639 687.34 347.239C687.34 355.839 694.33 362.839 702.94 362.839C711.54 362.839 718.54 355.839 718.54 347.239C718.54 338.639 711.54 331.639 702.94 331.639ZM782.73 385.879C782.45 387.719 782.01 389.499 781.4 391.209C779.85 391.009 778.29 390.749 776.74 390.449L776.57 391.349C778.07 391.639 779.58 391.889 781.08 392.089C780.16 394.529 778.92 396.819 777.4 398.909L780.58 402.089L773.89 408.789L770.74 405.639C766.96 408.419 762.5 410.329 757.67 411.089V415.499H748.21V411.089C743.38 410.329 738.92 408.419 735.14 405.639L731.99 408.789L725.3 402.089L727.85 399.539L728.48 398.909C725.75 395.129 723.88 390.689 723.15 385.879H718.58V376.409H723.22C723.99 371.649 725.89 367.259 728.63 363.529L725.3 360.199L731.99 353.499L735.36 356.869C739.09 354.169 743.47 352.319 748.21 351.569V346.789H757.67V351.569C761.01 352.099 764.17 353.169 767.05 354.709C768.26 355.349 769.42 356.069 770.52 356.869L773.89 353.499L780.58 360.199L777.25 363.529C779.99 367.259 781.89 371.649 782.66 376.409H787.3V385.879H782.73ZM731.25 381.329C731.25 388.959 735.21 395.679 741.18 399.539C744.57 401.739 748.61 403.019 752.94 403.019C764.9 403.019 774.63 393.289 774.63 381.329C774.63 376.039 772.73 371.179 769.56 367.409C765.58 362.659 759.61 359.639 752.94 359.639C740.98 359.639 731.25 369.369 731.25 381.329ZM686.59 524.059V540.779H693.8V524.059V506.969H686.59V524.059ZM524.04 453.189H614.68L583.46 427.009V399.539H500.46L502.44 431.109L524.04 453.189ZM473.73 297.961C472.57 299.921 470.44 301.241 468 301.241C464.33 301.241 461.35 298.261 461.35 294.591C461.35 290.921 464.33 287.941 468 287.941C471.67 287.941 474.65 290.921 474.65 294.591C474.65 295.491 474.47 296.361 474.14 297.141C474.03 297.431 473.89 297.701 473.73 297.961ZM296.6 434.422H340.52V435.342H296.6V434.422ZM340.52 429.09H296.6V430H340.52V429.09ZM296.6 423.75H340.52V424.67H296.6V423.75ZM340.28 355.099C336.61 355.099 333.64 352.129 333.64 348.449C333.64 344.779 336.61 341.809 340.28 341.809C343.8 341.809 346.68 344.539 346.91 347.999C346.92 348.149 346.93 348.299 346.93 348.449C346.93 348.609 346.92 348.759 346.91 348.909C346.68 352.379 343.79 355.099 340.28 355.099ZM308.53 339.118H328.59C330.33 339.118 331.91 338.408 333.05 337.278C334.19 336.138 334.89 334.568 334.89 332.828H302.23C302.23 336.298 305.05 339.118 308.53 339.118ZM310.19 447.511C310.19 446.481 311.03 445.641 312.06 445.641H324.65C325.68 445.641 326.52 446.481 326.52 447.511C326.52 448.541 325.68 449.371 324.65 449.371H312.06C311.03 449.371 310.19 448.541 310.19 447.511ZM258.21 249.49C264.61 249.49 271.02 248.27 271.02 245.84C271.02 240.98 267.07 234.91 262.21 234.91H254.2C249.33 234.91 245.39 240.98 245.39 245.84C245.39 248.27 251.8 249.49 258.21 249.49ZM263.77 219.808C266.543 222.58 266.543 227.076 263.77 229.849C260.998 232.621 256.502 232.621 253.73 229.849C250.957 227.076 250.957 222.58 253.73 219.808C256.502 217.035 260.998 217.035 263.77 219.808ZM239.83 524.059V540.779H247.05V524.059V506.969H239.83V524.059ZM902.22 473.289C903.21 473.289 904.01 474.069 904.04 475.049C904.05 475.069 904.05 475.099 904.05 475.119C904.05 476.129 903.23 476.949 902.22 476.949H245.11C244.1 476.949 243.28 476.129 243.28 475.119C243.28 475.099 243.28 475.069 243.29 475.049C243.32 474.069 244.12 473.289 245.11 473.289H902.22Z" fill="#FF5E5E"/>
<path fill-rule="evenodd" clip-rule="evenodd" d="M905.244 97.5722C907.599 95.2173 907.599 91.3993 905.244 89.0445C902.889 86.6896 899.071 86.6896 896.716 89.0445C894.361 91.3993 894.361 95.2173 896.716 97.5722C899.071 99.9271 902.889 99.9271 905.244 97.5722ZM922.99 340.889H924.43V342.719H922.99H881.42H863.5C862.85 343.889 862.19 345.049 861.51 346.189L860.72 345.719C861.31 344.729 861.89 343.729 862.46 342.719H825.75V340.889H863.46L864.27 339.359L865.08 339.779C864.89 340.149 864.69 340.519 864.49 340.889H881.42H922.99ZM924.43 362.238H922.99H881.42H877.54V364.058H881.42H922.99H924.43V362.238ZM924.43 383.578H922.99H881.42H877.54V385.408H881.42H922.99H924.43V383.578ZM881.42 406.752H825.75V404.922H881.42H922.99H924.43V406.752H922.99H881.42ZM825.75 321.381H881.42H922.99H924.43V319.551H922.99H881.42H825.75V321.381ZM877.74 290.608C877.8 289.218 877.83 287.828 877.83 286.468C877.83 285.418 877.81 284.378 877.78 283.338L878.69 283.308C878.73 284.358 878.74 285.408 878.74 286.468C878.74 287.838 878.71 289.248 878.65 290.648L877.74 290.608ZM876.54 158.839L877.43 159.049C877.99 156.689 878.29 154.219 878.33 151.709L877.41 151.699C877.38 154.139 877.08 156.549 876.54 158.839ZM876.08 268.92L876.97 268.73C877.46 271.08 877.86 273.52 878.15 275.98L877.24 276.09C876.95 273.66 876.56 271.24 876.08 268.92ZM877 305.229C877.44 302.799 877.8 300.359 878.08 297.969L877.17 297.859C876.9 300.239 876.54 302.659 876.1 305.059L877 305.229ZM875.94 137.199C876.73 139.629 877.34 142.039 877.73 144.349L876.83 144.509C876.44 142.239 875.85 139.869 875.07 137.489L875.94 137.199ZM873.47 319.459C874.2 317.119 874.87 314.749 875.45 312.399L874.57 312.179C873.99 314.509 873.33 316.869 872.6 319.189L873.47 319.459ZM872.13 254.911L872.54 254.711L872.55 254.731C873.51 256.951 874.38 259.261 875.12 261.621L874.25 261.891C873.52 259.571 872.66 257.281 871.71 255.101L871.68 254.911H872.13ZM871.02 172.251C872.58 170.241 873.89 168.141 874.94 166.001L874.12 165.601C873.1 167.681 871.81 169.731 870.3 171.701L871.02 172.251ZM869.76 123.879C871.04 125.959 872.21 128.139 873.24 130.359L872.41 130.739C871.4 128.559 870.24 126.409 868.98 124.359L869.76 123.879ZM870.22 326.07C869.36 328.33 868.42 330.59 867.44 332.8L868.27 333.17C869.27 330.95 870.21 328.67 871.07 326.39L870.22 326.07ZM868.19 248.821C866.85 246.901 865.27 245.061 863.5 243.351L864.14 242.691C865.95 244.451 867.56 246.331 868.94 248.291L868.19 248.821ZM866.07 177.709L865.44 177.039C863.81 178.609 862 180.139 859.91 181.749L860.47 182.469C862.58 180.849 864.41 179.289 866.07 177.709ZM860.67 112.351C862.4 114.081 864.04 115.941 865.55 117.851L864.83 118.421C863.34 116.531 861.72 114.701 860.02 112.991L860.67 112.351ZM851.81 234.829C854.13 236.169 856.13 237.449 857.93 238.739L858.47 237.999C856.64 236.689 854.61 235.389 852.27 234.039L851.81 234.829ZM852.52 357.761C853.99 355.871 855.43 353.881 856.81 351.871L857.56 352.381C856.18 354.411 854.73 356.411 853.24 358.321L852.52 357.761ZM855.19 107.439C853.29 105.919 851.27 104.479 849.2 103.179L848.71 103.959C850.75 105.239 852.74 106.649 854.62 108.149L855.19 107.439ZM854.51 186.75C852.5 188.11 850.48 189.42 848.52 190.69L848.39 190.78L847.89 190.01L848.02 189.93C849.98 188.66 852 187.35 854 186L854.51 186.75ZM847.87 363.371C846.25 365.191 844.56 366.971 842.86 368.641L843.5 369.291C845.22 367.611 846.92 365.811 848.55 363.971L847.87 363.371ZM844.79 231.02C842.73 229.94 840.78 228.91 838.95 227.86L839.4 227.07C841.177 228.085 843.068 229.082 845.064 230.133L845.068 230.135L845.21 230.21L845.83 230.53L845.4 231.34L844.79 231.02ZM842.76 99.6205C840.55 98.5606 838.27 97.6105 835.96 96.8005L835.66 97.6605C837.93 98.4605 840.19 99.4005 842.36 100.451L842.76 99.6205ZM835.88 198.441C837.5 197.091 839.37 195.691 841.78 194.051L842.29 194.801C839.91 196.431 838.06 197.811 836.47 199.141L835.88 198.441ZM837.48 373.539C835.61 375.119 833.68 376.619 831.74 377.999L832.28 378.749C834.23 377.349 836.18 375.829 838.07 374.229L837.48 373.539ZM832.83 223.739C830.63 221.879 829.14 219.959 828.27 217.869L829.11 217.519C829.92 219.469 831.33 221.279 833.42 223.039L832.83 223.739ZM828.5 210.64C828.91 208.45 829.87 206.37 831.44 204.28L830.71 203.73C829.06 205.94 828.04 208.14 827.6 210.47L828.5 210.64ZM821.64 93.4998C824.08 93.7797 826.52 94.1998 828.89 94.7498L828.69 95.6397C826.34 95.0997 823.94 94.6798 821.54 94.4097L821.64 93.4998ZM826.12 382.759L825.66 381.969C823.56 383.208 821.4 384.359 819.24 385.369L819.63 386.199C821.81 385.169 824 384.009 826.12 382.759ZM806.99 92.988C809.74 93.0081 812.18 93.028 814.3 93.048L814.29 93.968C812.17 93.9381 809.73 93.918 806.98 93.908L806.99 92.988ZM812.83 388.981L812.53 388.121C810.24 388.921 807.89 389.611 805.57 390.151L805.77 391.041C808.13 390.491 810.51 389.801 812.83 388.981ZM792.37 92.9216L799.68 92.9517L799.67 93.8716L792.36 93.8416L792.37 92.9216ZM798.42 391.398C796.05 391.678 793.61 391.828 791.18 391.838V392.758C793.65 392.738 796.12 392.588 798.53 392.308L798.42 391.398ZM777.74 92.8787L785.06 92.8986L785.05 93.8087L777.74 93.7986V92.8787ZM783.84 392.419L783.93 391.509C783.09 391.429 782.25 391.329 781.4 391.209C779.85 391.009 778.29 390.749 776.74 390.449L776.57 391.349C778.07 391.639 779.58 391.889 781.08 392.089C782 392.219 782.93 392.329 783.84 392.419ZM731.25 381.33C731.25 369.37 740.98 359.64 752.94 359.64C759.61 359.64 765.58 362.66 769.56 367.41L772.07 380.12C774.19 390.85 767.22 399.54 756.49 399.54H741.18C735.21 395.68 731.25 388.96 731.25 381.33ZM751.5 388.06C755.14 389.03 758.88 386.87 759.85 383.22C760.82 379.58 758.66 375.84 755.02 374.87C751.38 373.9 747.64 376.07 746.67 379.71C745.7 383.35 747.86 387.09 751.5 388.06ZM770.43 92.8691L763.12 92.8591V93.7791H770.43V92.8691ZM755.69 384.451C754.68 383.981 753.7 383.511 752.74 383.031L753.14 382.211C754.1 382.691 755.07 383.161 756.07 383.621L755.69 384.451ZM755.81 92.8513H748.5V93.7713H755.81V92.8513ZM741.19 92.8513V93.7614H736.08H733.88V92.8513H736.08H741.19ZM653.79 168.609H356.03C345.3 168.609 338.33 177.299 340.45 188.019L340.88 190.189H653.79H734.52L734.09 188.019C731.97 177.299 721.55 168.609 710.83 168.609H653.79ZM368.63 185.249C366.69 185.249 365.13 183.679 365.13 181.749C365.13 179.819 366.69 178.249 368.63 178.249C370.56 178.249 372.13 179.819 372.13 181.749C372.13 183.679 370.56 185.249 368.63 185.249ZM383.35 185.249C381.42 185.249 379.85 183.679 379.85 181.749C379.85 179.819 381.42 178.249 383.35 178.249C385.28 178.249 386.85 179.819 386.85 181.749C386.85 183.679 385.28 185.249 383.35 185.249ZM398.07 185.249C396.14 185.249 394.57 183.679 394.57 181.749C394.57 179.819 396.14 178.249 398.07 178.249C400.01 178.249 401.57 179.819 401.57 181.749C401.57 183.679 400.01 185.249 398.07 185.249ZM719.26 92.8513H726.57V93.7614L719.26 93.7713V92.8513ZM706.524 362.422C714.909 360.442 720.102 352.04 718.123 343.655C716.143 335.27 707.741 330.077 699.356 332.056C690.971 334.036 685.778 342.438 687.757 350.823C689.737 359.208 698.139 364.401 706.524 362.422ZM704.63 92.8591H711.94V93.7691H704.63V92.8591ZM697.31 93.7808V92.8709H689.99L690 93.7908L697.31 93.7808ZM675.36 92.8886L682.68 92.8787V93.7986H675.36V92.8886ZM668.05 92.8982L660.73 92.9082V93.8182L668.05 93.8082V92.8982ZM915.66 494.308C916.99 494.308 918.27 494.528 919.46 494.938C924.16 496.518 927.56 500.978 927.56 506.208V540.398C927.56 546.958 922.22 552.288 915.66 552.288H677.47C670.91 552.288 665.57 546.958 665.57 540.398V524.058V506.208C665.57 499.648 670.91 494.308 677.47 494.308H915.66ZM915.66 551.288C921.67 551.288 926.56 546.408 926.56 540.398V506.208C926.56 501.528 923.6 497.538 919.46 495.988C918.27 495.548 916.99 495.308 915.66 495.308H677.47C671.46 495.308 666.57 500.198 666.57 506.208V524.058V540.398C666.57 546.408 671.46 551.288 677.47 551.288H915.66ZM653.42 92.9216L646.1 92.9316V93.8516L653.42 93.8316V92.9216ZM667.54 139.109C667.54 146.689 661.38 152.859 653.79 152.859C646.21 152.859 640.05 146.689 640.05 139.109C640.05 131.529 646.21 125.359 653.79 125.359C654.27 125.359 654.75 125.389 655.23 125.429C662.14 126.149 667.54 132.009 667.54 139.109ZM654.84 126.329C654.49 126.289 654.14 126.279 653.79 126.279C646.72 126.279 640.96 132.029 640.96 139.109C640.96 146.189 646.72 151.949 653.79 151.949C660.87 151.949 666.63 146.189 666.63 139.109C666.63 132.379 661.43 126.859 654.84 126.329ZM638.79 92.9412L631.47 92.9611V93.8712L638.79 93.8611V92.9412ZM616.84 92.9785L624.16 92.9685V93.8785L616.84 93.8885V92.9785ZM524.04 453.191H420.51V461.121H530.34H711.62V453.191H614.68H524.04ZM602.21 93.0081L609.53 92.988V93.908L602.21 93.918V93.0081ZM594.9 93.0193L587.58 93.0393V93.9493L594.9 93.9393V93.0193ZM572.92 93.0706L580.25 93.0505V93.9705L572.92 93.9805V93.0706ZM565.61 93.9996L565.6 93.0896L558.3 93.0996L558.4 94.0196L565.61 93.9996ZM543.69 93.1408L551 93.1209V94.0308L543.69 94.0508V93.1408ZM536.37 93.1482L529.06 93.1682V94.0882L536.37 94.0682V93.1482ZM514.43 93.2111L521.74 93.1912V94.1011L514.43 94.1212V93.2111ZM507.11 93.2302L499.8 93.2502V94.1602L507.11 94.1402V93.2302ZM485.17 93.2814L492.48 93.2615V94.1815L485.17 94.2015V93.2814ZM477.85 94.2205V93.3005L470.53 93.3206L470.54 94.2405L477.85 94.2205ZM463.22 93.3396V94.2596L455.91 94.2796L455.9 93.3596L463.22 93.3396ZM448.59 93.3787L441.27 93.3986V94.3187L448.59 94.2986V93.3787ZM433.95 93.4294L433.96 94.3394L426.64 94.3594L426.63 93.4495L433.95 93.4294ZM419.32 93.4685L412 93.4885V94.3985L419.32 94.3785V93.4685ZM397.36 93.5314L404.68 93.5115V94.4315L397.36 94.4515V93.5314ZM390.04 93.5584L382.72 93.5783V94.4883L390.04 94.4683V93.5584ZM368.07 93.6213L375.39 93.6013V94.5213L368.07 94.5413V93.6213ZM570.05 240.589H653.79H744.48L734.7 191.109H653.79H341.06L344.63 209.139H442.83V217.749C443.09 217.749 443.29 217.959 443.29 218.209C443.29 218.459 443.09 218.669 442.83 218.669H346.51L348.57 229.069H447.92V237.689C448.17 237.689 448.37 237.889 448.37 238.149C448.37 238.399 448.17 238.599 447.92 238.599H350.45L352.51 249.009H501.34V257.619C501.6 257.619 501.8 257.829 501.8 258.079C501.8 258.329 501.6 258.539 501.34 258.539H354.39L372.08 347.999H456.81C472.18 347.999 484.69 335.489 484.69 320.119C484.69 311.359 480.53 303.179 473.73 297.959C472.57 299.919 470.44 301.239 468 301.239C464.33 301.239 461.35 298.259 461.35 294.589C461.35 290.919 464.33 287.939 468 287.939C471.67 287.939 474.65 290.919 474.65 294.589C474.65 295.489 474.47 296.359 474.14 297.139C481.24 302.509 485.6 311.009 485.6 320.119C485.6 335.999 472.68 348.909 456.81 348.909H372.26L378.43 380.119C380.55 390.849 390.97 399.539 401.69 399.539H500.46H583.46H653.79H727.85L728.48 398.909C725.75 395.129 723.88 390.689 723.15 385.879H718.58V376.409H723.22C723.99 371.649 725.89 367.259 728.63 363.529L725.3 360.199L731.99 353.499L735.36 356.869C739.09 354.169 743.47 352.319 748.21 351.569V346.789H757.67V351.569C761.01 352.099 764.17 353.169 767.05 354.709L756.43 301.019H653.79H582.64C571.89 301.019 561.36 292.269 559.11 281.479L554.66 260.129C552.41 249.339 559.3 240.589 570.05 240.589ZM638.57 200.829H653.79H688.81V205.649H653.79H638.57V200.829ZM692.19 213.319V218.139H656.7V213.319H692.19ZM637.55 225.809H653.79H695.16V230.629H653.79H637.55V225.809ZM369.64 292.249H362.28V291.329H369.64V292.249ZM384.37 292.249H377.01V291.329H384.37V292.249ZM399.1 292.249H391.73V291.329H399.1V292.249ZM413.82 292.249H406.46V291.329H413.82V292.249ZM428.55 292.249H421.19V291.329H428.55V292.249ZM443.28 292.249H435.91V291.329H443.28V292.249ZM457.98 292.269C457.59 292.249 457.2 292.249 456.81 292.249H450.64V291.329H456.81C457.22 291.329 457.62 291.339 458.02 291.359L457.98 292.269ZM677.14 342.429H681.8C682.36 339.919 683.37 337.589 684.72 335.499L681.4 332.169L688 325.559L691.36 328.919C693.45 327.589 695.78 326.619 698.27 326.079V321.309H707.61V326.079C710.1 326.619 712.43 327.589 714.51 328.919L717.87 325.559L724.48 332.169L721.15 335.499C722.51 337.589 723.51 339.919 724.07 342.429H728.73V351.769H724.13C723.6 354.309 722.61 356.689 721.25 358.809L724.48 362.039L717.87 368.649L714.68 365.449C712.56 366.829 710.17 367.849 707.61 368.399V372.899H698.27V368.399C695.71 367.849 693.33 366.839 691.2 365.449L688 368.649L681.4 362.039L684.62 358.819C683.27 356.699 682.28 354.319 681.74 351.769H677.14V342.429ZM590.06 346.579H532.44V341.769H590.06V346.579ZM587.08 334.089H551.6V329.279H587.08V334.089ZM583.7 316.789V321.599H533.46V316.789H583.7ZM360.74 93.6482V94.5582L353.41 94.5782L353.4 93.6682L360.74 93.6482ZM285.64 444.058C285.64 450.778 291.09 456.218 297.81 456.218H339.31C346.03 456.218 351.48 450.778 351.48 444.058V348.908H346.91C346.68 352.378 343.79 355.098 340.28 355.098C336.61 355.098 333.64 352.128 333.64 348.448C333.64 344.778 336.61 341.808 340.28 341.808C343.8 341.808 346.68 344.538 346.91 347.998H351.48V344.988C351.48 338.268 346.03 332.828 339.31 332.828H334.89C334.89 334.568 334.19 336.138 333.05 337.278C331.91 338.408 330.33 339.118 328.59 339.118H308.53C305.05 339.118 302.23 336.298 302.23 332.828H297.81C291.09 332.828 285.64 338.268 285.64 344.988V444.058ZM324.65 449.368H312.06C311.03 449.368 310.19 448.538 310.19 447.508C310.19 446.478 311.03 445.638 312.06 445.638H324.65C325.68 445.638 326.52 446.478 326.52 447.508C326.52 448.538 325.68 449.368 324.65 449.368ZM340.52 435.338H296.6V434.418H340.52V435.338ZM340.52 429.998H296.6V429.088H340.52V429.998ZM340.52 424.668H296.6V423.748H340.52V424.668ZM340.52 419.888H296.6V369.158H340.52V419.888ZM321.69 347.998H329.05V348.908H321.69V347.998ZM306.96 347.998H314.33V348.908H306.96V347.998ZM340.52 359.878V364.378H296.6V359.878H340.52ZM292.24 347.998H299.6V348.908H292.24V347.998ZM346.06 94.609L339.96 94.629H338.68L338.67 93.7189H340.06L346.06 93.699V94.609ZM258.2 261.052C273.36 261.052 285.64 248.762 285.64 233.612C285.64 218.462 273.36 206.172 258.2 206.172C243.05 206.172 230.76 218.462 230.76 233.612C230.76 248.762 243.05 261.052 258.2 261.052ZM258.75 217.732C262.67 217.732 265.85 220.912 265.85 224.832C265.85 228.752 262.67 231.932 258.75 231.932C254.83 231.932 251.65 228.752 251.65 224.832C251.65 220.912 254.83 217.732 258.75 217.732ZM254.2 234.912H262.21C267.07 234.912 271.02 240.982 271.02 245.842C271.02 248.272 264.61 249.492 258.21 249.492C251.8 249.492 245.39 248.272 245.39 245.842C245.39 240.982 249.33 234.912 254.2 234.912ZM234.89 494.308H626.94C633.5 494.308 638.84 499.648 638.84 506.208V524.058V540.398C638.84 546.958 633.5 552.288 626.94 552.288H234.89C228.33 552.288 223 546.958 223 540.398V506.208C223 505.018 223.18 503.868 223.5 502.778C224.97 497.888 229.52 494.308 234.89 494.308ZM637.84 540.398V524.058V506.208C637.84 500.198 632.95 495.308 626.94 495.308H234.89C228.88 495.308 224 500.198 224 506.208V524.058V540.398C224 546.408 228.88 551.288 234.89 551.288H626.94C632.95 551.288 637.84 546.408 637.84 540.398Z" fill="#1B5C6A"/>
</svg>