<svg class="illustration" width="1155" height="700" viewBox="0 0 1155 700" fill="none" xmlns="http://www.w3.org/2000/svg">
<path d="M955.15 596.896V602.886C955.15 610.096 949.25 616.006 942.03 616.006H211.13C203.91 616.006 198 610.096 198 602.886V596.896C198 573.714 216.967 554.746 240.15 554.746H240.15C256.183 554.746 269.18 541.749 269.18 525.716V503.506C269.18 489.876 280.24 478.816 293.88 478.816H573.2C586.84 478.816 597.89 489.876 597.89 503.506V525.716C597.89 541.749 610.887 554.746 626.92 554.746H913C936.182 554.746 955.15 573.714 955.15 596.896Z" fill="#F1F2F2"/>
<path fill-rule="evenodd" clip-rule="evenodd" d="M533.402 184.711H651.282V282.162H533.402V184.711ZM612.448 472.277H557.732V476.873H612.448V472.277ZM679.082 482.426H557.732V487.022H679.082V482.426Z" fill="#6D6E71"/>
<path d="M568.797 198.537H540.665V202.256H568.797V198.537Z" fill="#F1F2F2"/>
<path d="M604.287 198.537H576.154V202.256H604.287V198.537Z" fill="#F1F2F2"/>
<path d="M568.797 207.834H540.665V211.553H568.797V207.834Z" fill="#F1F2F2"/>
<path d="M604.287 207.834H576.154V211.553H604.287V207.834Z" fill="#F1F2F2"/>
<path d="M639.615 198.537H611.483V202.256H639.615V198.537Z" fill="#F1F2F2"/>
<path d="M568.797 226.428H540.665V230.147H568.797V226.428Z" fill="#F1F2F2"/>
<path d="M639.615 207.834H611.483V211.553H639.615V207.834Z" fill="#F1F2F2"/>
<path d="M568.797 235.725H540.665V239.444H568.797V235.725Z" fill="#F1F2F2"/>
<path d="M604.287 235.725H576.154V239.444H604.287V235.725Z" fill="#F1F2F2"/>
<path d="M639.615 226.428H611.483V239.444H639.615V226.428Z" fill="#F1F2F2"/>
<path d="M604.287 226.428H576.154V230.147H604.287V226.428Z" fill="#F1F2F2"/>
<path d="M733.442 245.84C729.482 245.84 726.272 249.05 726.272 253.01C726.272 256.97 729.482 260.181 733.442 260.181C737.402 260.181 740.612 256.97 740.612 253.01C740.612 249.05 737.402 245.84 733.442 245.84Z" fill="#3BD9BF"/>
<path fill-rule="evenodd" clip-rule="evenodd" d="M570.84 508.83C570.84 506.732 572.541 505.031 574.639 505.031H608.724C610.822 505.031 612.522 506.732 612.522 508.83V510.765C612.522 512.863 610.822 514.563 608.724 514.563H574.639C572.541 514.563 570.84 512.863 570.84 510.765V508.83ZM574.639 504.031C571.989 504.031 569.84 506.18 569.84 508.83V510.765C569.84 513.415 571.989 515.563 574.639 515.563H608.724C611.374 515.563 613.522 513.415 613.522 510.765V508.83C613.522 506.18 611.374 504.031 608.724 504.031H574.639ZM628.091 515.063H662.177C664.551 515.063 666.475 513.139 666.475 510.765V508.83C666.475 506.456 664.551 504.531 662.177 504.531H628.091C625.717 504.531 623.793 506.456 623.793 508.83V510.765C623.793 513.139 625.717 515.063 628.091 515.063Z" fill="#F1F2F2"/>
<path fill-rule="evenodd" clip-rule="evenodd" d="M856.115 116.532V93.9062H857.115V116.532H856.115ZM283.236 109.424C283.236 111.543 281.518 113.262 279.398 113.262C277.279 113.262 275.561 111.543 275.561 109.424C275.561 107.304 277.279 105.586 279.398 105.586C281.518 105.586 283.236 107.304 283.236 109.424ZM897.552 166.678C897.552 164.834 899.046 163.34 900.89 163.34C902.733 163.34 904.228 164.834 904.228 166.678C904.228 168.521 902.733 170.016 900.89 170.016C899.046 170.016 897.552 168.521 897.552 166.678ZM900.89 162.34C898.494 162.34 896.552 164.282 896.552 166.678C896.552 169.073 898.494 171.016 900.89 171.016C903.285 171.016 905.228 169.073 905.228 166.678C905.228 164.282 903.285 162.34 900.89 162.34ZM863.035 93.9062V116.532H864.035V93.9062H863.035ZM869.955 116.532V93.9062H870.955V116.532H869.955ZM876.876 93.9062V116.532H877.876V93.9062H876.876ZM883.796 116.532V93.9062H884.796V116.532H883.796ZM229.045 452.27C229.045 451.993 228.822 451.77 228.545 451.77C228.269 451.77 228.045 451.993 228.045 452.27V474.896C228.045 475.172 228.269 475.396 228.545 475.396C228.822 475.396 229.045 475.172 229.045 474.896V452.27ZM235.466 451.77C235.742 451.77 235.966 451.993 235.966 452.27V474.896C235.966 475.172 235.742 475.396 235.466 475.396C235.19 475.396 234.966 475.172 234.966 474.896V452.27C234.966 451.993 235.19 451.77 235.466 451.77ZM242.886 452.27C242.886 451.993 242.662 451.77 242.386 451.77C242.11 451.77 241.886 451.993 241.886 452.27V474.896C241.886 475.172 242.11 475.396 242.386 475.396C242.662 475.396 242.886 475.172 242.886 474.896V452.27ZM249.306 451.77C249.583 451.77 249.806 451.993 249.806 452.27V474.896C249.806 475.172 249.583 475.396 249.306 475.396C249.03 475.396 248.806 475.172 248.806 474.896V452.27C248.806 451.993 249.03 451.77 249.306 451.77ZM256.727 452.27C256.727 451.993 256.503 451.77 256.227 451.77C255.951 451.77 255.727 451.993 255.727 452.27V474.896C255.727 475.172 255.951 475.396 256.227 475.396C256.503 475.396 256.727 475.172 256.727 474.896V452.27ZM496.655 109.738H441.94V104.738H496.655V109.738ZM496.655 124.301H441.94V119.301H496.655V124.301ZM487.372 352.687H451.223C449.043 352.687 447.276 350.92 447.276 348.74C447.276 347.622 447.741 346.613 448.488 345.895C448.432 345.948 448.378 346.003 448.326 346.059C449.047 345.28 450.078 344.792 451.223 344.792H462.958C464.277 342.679 466.623 341.272 469.298 341.272C471.972 341.272 474.319 342.679 475.638 344.792H487.372C488.615 344.792 489.724 345.367 490.447 346.265C490.379 346.18 490.307 346.098 490.231 346.019C490.905 346.727 491.319 347.685 491.319 348.74C491.319 350.92 489.552 352.687 487.372 352.687ZM475.638 344.793H462.958C464.277 342.68 466.623 341.273 469.298 341.273C471.972 341.273 474.319 342.68 475.638 344.793ZM504.569 426.938H434.026V431.533H468.841V437.179H469.754V431.533H504.569V426.938ZM386.517 578.296L248.457 203.633L242.386 205.87L381.821 584.264L385.403 582.944V584.443H863.932V578.296H386.517ZM854.73 501.799C854.73 502.487 854.173 503.044 853.485 503.044C852.798 503.044 852.241 502.487 852.241 501.799C852.241 501.112 852.798 500.555 853.485 500.555C854.173 500.555 854.73 501.112 854.73 501.799ZM794.103 501.801C794.103 501.525 794.326 501.301 794.603 501.301H847.071C847.347 501.301 847.571 501.525 847.571 501.801C847.571 502.077 847.347 502.301 847.071 502.301H794.603C794.326 502.301 794.103 502.077 794.103 501.801ZM860.358 501.801C860.358 501.525 860.582 501.301 860.858 501.301H913.326C913.602 501.301 913.826 501.525 913.826 501.801C913.826 502.077 913.602 502.301 913.326 502.301H860.858C860.582 502.301 860.358 502.077 860.358 501.801ZM794.603 515.086C794.326 515.086 794.103 515.31 794.103 515.586C794.103 515.862 794.326 516.086 794.603 516.086H875.666C875.942 516.086 876.166 515.862 876.166 515.586C876.166 515.31 875.942 515.086 875.666 515.086H794.603ZM880.76 515.586C880.76 515.31 880.984 515.086 881.26 515.086H913.326C913.602 515.086 913.826 515.31 913.826 515.586C913.826 515.862 913.602 516.086 913.326 516.086H881.26C880.984 516.086 880.76 515.862 880.76 515.586ZM811.553 182.559L811.553 149.688C811.553 133.997 798.833 121.277 783.142 121.277H504.569V142.097V142.098V151.288V151.289V360.152H783.142C798.833 360.152 811.553 347.432 811.553 331.741L811.553 309.176C815.495 309.176 818.691 305.98 818.691 302.037V248.406H819.713C831.695 248.406 841.409 258.12 841.409 270.103V313.499C841.582 313.479 841.758 313.469 841.936 313.469C842.096 313.469 842.254 313.477 842.409 313.493V270.103C842.409 257.568 832.248 247.406 819.713 247.406H818.691V189.697C818.691 185.755 815.495 182.559 811.553 182.559ZM811.553 308.176C814.943 308.176 817.691 305.427 817.691 302.037V248.406H811.553L811.553 308.176ZM817.691 247.406H811.553L811.553 183.559C814.943 183.559 817.691 186.307 817.691 189.697V247.406ZM780.899 247.906C780.899 247.666 781.068 247.465 781.294 247.417C778.523 223.446 758.156 204.836 733.442 204.836C706.836 204.836 685.269 226.404 685.269 253.009C685.269 279.615 706.836 301.182 733.442 301.182C760.047 301.182 781.615 279.615 781.615 253.009C781.615 251.457 781.542 249.921 781.398 248.406C781.122 248.406 780.899 248.182 780.899 247.906ZM841.41 362.763C841.481 375.237 851.615 385.328 864.106 385.328H879.193C890.127 385.328 899.172 393.415 900.672 403.935C900.714 403.933 900.757 403.931 900.8 403.931C900.83 403.93 900.86 403.93 900.89 403.93C901.163 403.93 901.43 403.953 901.69 403.999C900.211 392.894 890.703 384.328 879.193 384.328H864.106C852.169 384.328 842.484 374.688 842.41 362.769C842.336 362.776 842.261 362.782 842.186 362.786C842.103 362.791 842.02 362.793 841.936 362.793C841.758 362.793 841.583 362.783 841.41 362.763ZM879.193 471.559C890.025 471.559 899.002 463.622 900.628 453.247C900.671 453.249 900.714 453.251 900.757 453.252C900.801 453.254 900.845 453.254 900.89 453.254C901.148 453.254 901.401 453.233 901.647 453.192C900.037 464.148 890.597 472.559 879.193 472.559H785.766C773.783 472.559 764.069 482.273 764.069 494.256V533.229C764.069 545.764 753.907 555.926 741.372 555.926H491.495C478.96 555.926 468.798 545.764 468.798 533.229C468.798 533.157 468.813 533.088 468.841 533.026V529.674H469.754V533.025C469.782 533.087 469.798 533.156 469.798 533.229C469.798 545.212 479.512 554.926 491.495 554.926H741.372C753.355 554.926 763.069 545.212 763.069 533.229V494.256C763.069 481.721 773.231 471.559 785.766 471.559H879.193ZM468.841 360.152V366.03H469.754V360.152V358.915H468.841V360.152ZM468.841 373.145V380.26H469.754V373.145H468.841ZM468.841 387.375V394.49H469.754V387.375H468.841ZM468.841 401.605V408.72H469.754V401.605H468.841ZM468.841 415.834V422.949H469.754V415.834H468.841ZM468.841 444.294V451.409H469.754V444.294H468.841ZM469.031 459.066C469.056 459.065 469.081 459.064 469.105 459.063C469.169 459.06 469.233 459.059 469.298 459.059C469.452 459.059 469.604 459.066 469.754 459.081V458.524H468.841V459.081C468.876 459.078 468.911 459.075 468.946 459.072C468.974 459.07 469.003 459.068 469.031 459.066ZM468.841 515.444V522.559H469.754V515.444H468.841ZM539.313 586.5H538.888C537.895 586.5 537.089 587.305 537.089 588.299V601.112C537.089 602.105 537.895 602.91 538.888 602.91H539.313C540.307 602.91 541.112 602.105 541.112 601.112V588.299C541.112 587.305 540.307 586.5 539.313 586.5ZM798.643 594.705C798.643 592.7 800.268 591.074 802.273 591.074C804.278 591.074 805.903 592.7 805.903 594.705C805.903 596.71 804.278 598.335 802.273 598.335C800.268 598.335 798.643 596.71 798.643 594.705ZM818.399 594.705C818.399 592.7 820.024 591.074 822.029 591.074C824.034 591.074 825.659 592.7 825.659 594.705C825.659 596.71 824.034 598.335 822.029 598.335C820.024 598.335 818.399 596.71 818.399 594.705ZM550.688 586.5H551.114C552.107 586.5 552.912 587.305 552.912 588.299V601.112C552.912 602.105 552.107 602.91 551.114 602.91H550.688C549.695 602.91 548.89 602.105 548.89 601.112V588.299C548.89 587.305 549.695 586.5 550.688 586.5ZM562.914 586.5H562.489C561.495 586.5 560.69 587.305 560.69 588.299V601.112C560.69 602.105 561.495 602.91 562.489 602.91H562.914C563.907 602.91 564.713 602.105 564.713 601.112V588.299C564.713 587.305 563.907 586.5 562.914 586.5ZM574.289 586.5H574.714C575.708 586.5 576.513 587.305 576.513 588.299V601.112C576.513 602.105 575.708 602.91 574.714 602.91H574.289C573.295 602.91 572.49 602.105 572.49 601.112V588.299C572.49 587.305 573.295 586.5 574.289 586.5ZM418.673 587.789C414.854 587.789 411.757 590.885 411.757 594.705C411.757 598.524 414.854 601.62 418.673 601.62C422.492 601.62 425.588 598.524 425.588 594.705C425.588 590.885 422.492 587.789 418.673 587.789ZM442.412 586.66H460.908C464.934 586.66 467.778 590.605 466.504 594.425L465.073 598.718C464.27 601.127 462.016 602.752 459.477 602.752H443.843C441.304 602.752 439.05 601.127 438.247 598.718L436.816 594.425C435.543 590.605 438.386 586.66 442.412 586.66ZM343.029 211.297H279.398V210.297H343.029V211.297ZM343.028 223.453H297.301V222.453H343.028V223.453ZM496.655 160.097H441.94V160.098H496.655V160.097ZM441.94 171.589H496.655V171.59H441.94V171.589ZM496.655 183.077H441.94V183.078H496.655V183.077ZM441.94 194.565H496.655V194.566H441.94V194.565ZM496.655 206.054H441.94V206.055H496.655V206.054ZM441.94 217.546H496.655V217.547H441.94V217.546ZM451.223 329.093C450.031 329.093 448.962 329.621 448.238 330.457C448.962 329.622 450.031 329.094 451.223 329.094H487.372C488.035 329.094 488.66 329.257 489.209 329.546C488.66 329.257 488.035 329.093 487.372 329.093H451.223ZM651.282 184.711H533.402V282.162H651.282V184.711ZM767.615 253.009C767.615 234.166 752.285 218.836 733.442 218.836C714.599 218.836 699.269 234.166 699.269 253.009C699.269 271.852 714.599 287.182 733.442 287.182C752.285 287.182 767.615 271.852 767.615 253.009ZM733.442 245.84C729.482 245.84 726.271 249.05 726.271 253.01C726.271 256.97 729.482 260.181 733.442 260.181C737.402 260.181 740.612 256.97 740.612 253.01C740.612 249.05 737.402 245.84 733.442 245.84ZM780.42 157.133H746.718V161.729H780.42V157.133ZM781.398 174.719H527.802V171.719H781.398V174.719ZM527.802 157.133H561.504V161.729H527.802V157.133ZM651.282 306.234H533.402V297.234H651.282V306.234ZM533.402 325.805H651.282V316.805H533.402V325.805ZM732.703 266.371V270.082H731.79V266.371H732.703ZM732.703 277.505V284.927H731.79V277.505H732.703ZM732.703 307.195V314.618H731.79V307.195H732.703ZM732.703 322.04V329.463H731.79V322.04H732.703ZM732.703 336.885V344.308H731.79V336.885H732.703ZM732.703 351.73V359.153H731.79V351.73H732.703ZM668.82 510.254H675.587V509.34H668.82V510.254ZM682.354 510.254H689.122V509.34H682.354V510.254ZM698.231 509.34V455.34H538.583V528.884H698.231V510.254H695.889V509.34H698.231ZM549.575 381.051H531.374V399.253H549.575V381.051ZM698.231 438.559H538.583V454.34H698.231V438.559ZM612.448 472.277H557.732V476.873H612.448V472.277ZM557.732 482.426H679.082V487.022H557.732V482.426ZM574.639 505.031C572.541 505.031 570.84 506.732 570.84 508.83V510.765C570.84 512.862 572.541 514.563 574.639 514.563H608.724C610.822 514.563 612.522 512.862 612.522 510.765V508.83C612.522 506.732 610.822 505.031 608.724 505.031H574.639ZM569.84 508.83C569.84 506.18 571.989 504.031 574.639 504.031H608.724C611.374 504.031 613.522 506.18 613.522 508.83V510.765C613.522 513.415 611.374 515.563 608.724 515.563H574.639C571.989 515.563 569.84 513.415 569.84 510.765V508.83ZM628.091 515.063H639.84C641.192 516.423 643.065 517.264 645.134 517.264C647.203 517.264 649.076 516.423 650.429 515.063H662.177C664.551 515.063 666.475 513.139 666.475 510.765V508.83C666.475 506.456 664.551 504.531 662.177 504.531H650.431C649.078 503.171 647.204 502.328 645.134 502.328C643.064 502.328 641.19 503.171 639.838 504.531H628.091C625.717 504.531 623.793 506.456 623.793 508.83V510.765C623.793 513.139 625.717 515.063 628.091 515.063ZM334.483 431.089L341.859 408.132C342.322 409.089 342.8 410.053 343.29 411.022C347.85 420.023 352.748 427.812 357.012 433.169L340.884 448.459L334.483 431.089ZM344.182 410.57C343.532 409.285 342.905 408.01 342.304 406.748L359.143 354.339C361.248 359.085 363.629 364.106 366.239 369.259C372.638 381.891 379.213 392.942 384.674 400.6C385.633 401.944 386.559 403.186 387.445 404.315L357.74 432.478C353.542 427.191 348.702 419.491 344.182 410.57ZM388.174 403.624L417.41 375.905C416.061 374.049 414.614 371.946 413.087 369.626C406.229 359.209 397.723 344.342 389.188 327.495C384.365 317.972 380.046 308.832 376.419 300.572L359.604 352.905C361.809 357.933 364.338 363.292 367.131 368.807C373.514 381.408 380.064 392.414 385.489 400.02C386.421 401.326 387.318 402.531 388.174 403.624ZM413.922 369.077C415.415 371.345 416.828 373.398 418.142 375.211L424.497 369.186L424.422 368.969L424.899 368.805L434.026 360.152V121.277L376.881 299.134C380.591 307.641 385.06 317.133 390.08 327.043C398.603 343.868 407.091 358.699 413.922 369.077ZM860.983 274.566C860.707 274.566 860.483 274.79 860.483 275.066C860.483 275.343 860.707 275.566 860.983 275.566H906.711C906.987 275.566 907.211 275.343 907.211 275.066C907.211 274.79 906.987 274.566 906.711 274.566H860.983ZM860.983 286.723C860.707 286.723 860.483 286.947 860.483 287.223C860.483 287.499 860.707 287.723 860.983 287.723H924.613C924.89 287.723 925.113 287.499 925.113 287.223C925.113 286.947 924.89 286.723 924.613 286.723H860.983ZM818.108 420.045C818.108 422.164 816.39 423.883 814.271 423.883C812.151 423.883 810.433 422.164 810.433 420.045C810.433 417.925 812.151 416.207 814.271 416.207C816.39 416.207 818.108 417.925 818.108 420.045Z" fill="#FF5E5E"/>
<path fill-rule="evenodd" clip-rule="evenodd" d="M434.026 142.097V94.1172H504.569V142.097H434.026ZM434.026 151.288H504.569V396.498H434.026V151.288ZM441.94 160.097H496.655V164.692H441.94V160.097ZM496.655 171.589H441.94V176.185H496.655V171.589ZM441.94 183.077H496.655V187.673H441.94V183.077ZM496.655 194.565H441.94V199.161H496.655V194.565ZM441.94 206.054H496.655V210.649H441.94V206.054ZM496.655 217.546H441.94V222.142H496.655V217.546ZM487.372 336.986H451.223C449.043 336.986 447.276 335.219 447.276 333.04C447.276 330.86 449.043 329.093 451.223 329.093H487.372C489.552 329.093 491.319 330.86 491.319 333.04C491.319 335.219 489.552 336.986 487.372 336.986ZM487.372 344.792H475.638C474.319 342.679 471.972 341.272 469.298 341.272C466.623 341.272 464.277 342.679 462.958 344.792H451.223C449.043 344.792 447.276 346.559 447.276 348.739C447.276 350.918 449.043 352.686 451.223 352.686H462.955C464.274 354.801 466.621 356.209 469.298 356.209C471.974 356.209 474.321 354.801 475.64 352.686H487.372C489.552 352.686 491.319 350.918 491.319 348.739C491.319 346.559 489.552 344.792 487.372 344.792ZM468.841 403.956H434.026V408.552H468.841V403.956ZM469.754 403.956V408.552H504.569V403.956H469.754ZM434.026 415.448H504.569V420.044H469.754V415.834H468.841V420.044H434.026V415.448ZM441.94 109.737H496.655V104.737H441.94V109.737ZM441.94 124.3H496.655V119.3H441.94V124.3ZM468.841 358.915V366.03H469.754V358.915H468.841ZM468.841 373.145V380.26H469.754V373.145H468.841ZM468.841 387.375V394.49H469.754V387.375H468.841ZM469.298 459.059C466.76 459.059 464.702 461.116 464.702 463.654V503.787C464.702 506.325 466.76 508.383 469.298 508.383C471.836 508.383 473.894 506.325 473.894 503.787V463.654C473.894 461.116 471.836 459.059 469.298 459.059ZM327.971 236.626L310.771 236.74C307.686 236.74 305.186 234.239 305.186 231.155V201.191C305.186 198.107 307.686 195.606 310.771 195.606L327.971 195.492C331.056 195.492 333.556 197.993 333.556 201.078V231.041C333.556 234.126 331.056 236.626 327.971 236.626ZM381.821 584.265L381.821 584.264L242.386 205.871C232.695 209.442 227.734 220.193 231.305 229.884L357.809 573.184C361.38 582.875 372.13 587.836 381.821 584.265ZM409.991 604.965C397.796 604.965 387.675 596.087 385.738 584.441H863.598C861.661 596.087 851.539 604.965 839.344 604.965H409.991ZM538.888 586.499H539.314C540.307 586.499 541.112 587.304 541.112 588.297V601.11C541.112 602.104 540.307 602.909 539.314 602.909H538.888C537.895 602.909 537.09 602.104 537.09 601.11V588.297C537.09 587.304 537.895 586.499 538.888 586.499ZM802.273 591.073C800.268 591.073 798.643 592.698 798.643 594.703C798.643 596.708 800.268 598.333 802.273 598.333C804.278 598.333 805.903 596.708 805.903 594.703C805.903 592.698 804.278 591.073 802.273 591.073ZM822.029 591.073C820.024 591.073 818.399 592.698 818.399 594.703C818.399 596.708 820.024 598.333 822.029 598.333C824.034 598.333 825.659 596.708 825.659 594.703C825.659 592.698 824.034 591.073 822.029 591.073ZM551.114 586.499H550.688C549.695 586.499 548.89 587.304 548.89 588.297V601.11C548.89 602.104 549.695 602.909 550.688 602.909H551.114C552.107 602.909 552.913 602.104 552.913 601.11V588.297C552.913 587.304 552.107 586.499 551.114 586.499ZM562.489 586.499H562.914C563.908 586.499 564.713 587.304 564.713 588.297V601.11C564.713 602.104 563.908 602.909 562.914 602.909H562.489C561.495 602.909 560.69 602.104 560.69 601.11V588.297C560.69 587.304 561.495 586.499 562.489 586.499ZM574.715 586.499H574.289C573.296 586.499 572.49 587.304 572.49 588.297V601.11C572.49 602.104 573.296 602.909 574.289 602.909H574.715C575.708 602.909 576.513 602.104 576.513 601.11V588.297C576.513 587.304 575.708 586.499 574.715 586.499ZM411.758 594.703C411.758 590.884 414.854 587.788 418.673 587.788C422.492 587.788 425.588 590.884 425.588 594.703C425.588 598.522 422.492 601.618 418.673 601.618C414.854 601.618 411.758 598.522 411.758 594.703ZM460.908 586.659H442.412C438.386 586.659 435.543 590.604 436.816 594.423L438.247 598.717C439.05 601.126 441.304 602.75 443.844 602.75H459.477C462.016 602.75 464.271 601.126 465.073 598.717L466.504 594.423C467.778 590.604 464.935 586.659 460.908 586.659ZM640.846 121.277C640.846 118.775 642.875 116.746 645.378 116.746H761.931C764.433 116.746 766.462 118.775 766.463 121.277H640.846ZM588.542 381.051H570.34V399.252H588.542V381.051ZM627.508 381.051H609.307V399.252H627.508V381.051ZM648.273 381.051H666.475V399.252H648.273V381.051ZM705.442 381.051H687.24V399.252H705.442V381.051ZM780.42 157.133H746.718V161.729H780.42V157.133ZM781.398 174.719H527.802V171.719H781.398V174.719ZM527.802 157.133H561.504V161.729H527.802V157.133ZM651.282 306.234H533.402V297.234H651.282V306.234ZM533.402 325.805H651.282V316.805H533.402V325.805ZM733.442 218.836C752.285 218.836 767.615 234.166 767.615 253.009C767.615 271.852 752.285 287.182 733.442 287.182C714.599 287.182 699.269 271.852 699.269 253.009C699.269 234.166 714.599 218.836 733.442 218.836ZM733.442 204.836C706.836 204.836 685.269 226.404 685.269 253.009C685.269 279.615 706.836 301.182 733.442 301.182C760.047 301.182 781.615 279.615 781.615 253.009C781.615 226.404 760.047 204.836 733.442 204.836ZM732.703 266.371V270.082H731.79V266.371H732.703ZM732.703 277.505V284.927H731.79V277.505H732.703ZM732.703 307.195V314.618H731.79V307.195H732.703ZM732.703 322.04V329.463H731.79V322.04H732.703ZM732.703 336.885V344.308H731.79V336.885H732.703ZM732.703 351.73V359.153H731.79V351.73H732.703ZM732.703 366.575V373.998H731.79V366.575H732.703ZM732.703 381.421V388.843H731.79V381.421H732.703ZM732.703 396.266V403.688H731.79V396.266H732.703ZM732.703 411.111V418.533H731.79V411.111H732.703ZM732.703 425.956V433.378H731.79V425.956H732.703ZM732.703 440.801V448.223H731.79V440.801H732.703ZM732.703 455.646V463.069H731.79V455.646H732.703ZM732.703 470.491V477.914H731.79V470.491H732.703ZM732.703 485.336V492.759H731.79V485.336H732.703ZM732.703 500.181V503.893C732.703 504.754 732.532 505.577 732.22 506.328L731.376 505.978C731.642 505.336 731.79 504.632 731.79 503.893V500.181H732.703ZM728.777 509.771C728.027 510.082 727.204 510.254 726.342 510.254H722.958V509.34H726.342C727.082 509.34 727.786 509.193 728.427 508.927L728.777 509.771ZM662.052 510.254H655.285V509.34H662.052V510.254ZM675.587 510.254H668.82V509.34H675.587V510.254ZM689.122 510.254H682.354V509.34H689.122V510.254ZM702.656 510.254H695.889V509.34H702.656V510.254ZM716.191 510.254H709.424V509.34H716.191V510.254ZM645.134 517.264C649.259 517.264 652.602 513.921 652.602 509.796C652.602 505.672 649.259 502.328 645.134 502.328C641.01 502.328 637.666 505.672 637.666 509.796C637.666 513.921 641.01 517.264 645.134 517.264ZM893.24 261.281L876.04 261.395C872.956 261.395 870.455 263.896 870.455 266.98V274.566H898.826V266.867C898.826 263.782 896.325 261.281 893.24 261.281ZM870.455 286.723V275.566H898.826V286.723H870.455ZM870.455 287.723H898.826V296.83C898.826 299.915 896.325 302.415 893.24 302.415L876.04 302.529C872.956 302.529 870.455 300.029 870.455 296.944V287.723ZM837.34 318.064C837.34 315.526 839.398 313.469 841.936 313.469C844.474 313.469 846.532 315.526 846.532 318.064V358.197C846.532 360.735 844.474 362.793 841.936 362.793C839.398 362.793 837.34 360.735 837.34 358.197V318.064ZM900.89 403.93C898.351 403.93 896.294 405.987 896.294 408.525V448.658C896.294 451.197 898.351 453.254 900.89 453.254C903.428 453.254 905.485 451.197 905.485 448.658V408.525C905.485 405.987 903.428 403.93 900.89 403.93ZM366.461 263.235C366.179 263.154 366.013 263.181 365.911 263.233C365.814 263.282 365.699 263.392 365.601 263.643C365.501 263.897 365.433 264.262 365.415 264.752C365.377 265.733 365.538 267.104 365.902 268.843C366.628 272.312 368.132 277.128 370.296 282.954C374.621 294.6 381.558 310.218 390.08 327.043C398.603 343.868 407.091 358.699 413.922 369.077C417.339 374.268 420.332 378.33 422.7 380.967C423.886 382.289 424.897 383.23 425.709 383.78C426.116 384.055 426.45 384.216 426.714 384.286C426.975 384.355 427.131 384.328 427.228 384.279C427.4 384.191 427.62 383.904 427.7 383.121C427.777 382.371 427.708 381.318 427.484 379.97C427.036 377.283 425.991 373.544 424.422 368.969L425.368 368.644C426.943 373.237 428.009 377.037 428.47 379.806C428.7 381.187 428.785 382.342 428.695 383.223C428.608 384.071 428.339 384.837 427.68 385.171C427.299 385.364 426.874 385.363 426.457 385.252C426.044 385.142 425.605 384.917 425.149 384.608C424.236 383.991 423.162 382.978 421.956 381.635C419.538 378.942 416.514 374.832 413.087 369.626C406.229 359.209 397.723 344.342 389.188 327.495C380.654 310.647 373.701 294.994 369.358 283.302C367.188 277.459 365.664 272.589 364.923 269.048C364.554 267.281 364.373 265.815 364.415 264.714C364.436 264.164 364.514 263.676 364.67 263.278C364.827 262.877 365.078 262.534 365.459 262.34C365.858 262.138 366.304 262.149 366.739 262.275C367.171 262.4 367.633 262.649 368.116 262.989C369.082 263.67 370.226 264.78 371.514 266.249C374.096 269.194 377.331 273.671 380.988 279.318L380.149 279.861C376.502 274.229 373.296 269.799 370.762 266.908C369.493 265.46 368.41 264.42 367.54 263.807C367.104 263.5 366.745 263.318 366.461 263.235ZM350.703 320.279C350.989 320.134 351.478 320.148 352.272 320.579C353.046 320.999 353.99 321.753 355.082 322.835C357.261 324.995 359.946 328.374 362.939 332.712L363.762 332.144C360.755 327.787 358.03 324.349 355.786 322.125C354.666 321.015 353.644 320.186 352.749 319.7C351.875 319.225 350.992 319.012 350.251 319.387C349.559 319.737 349.209 320.493 349.057 321.385C348.902 322.292 348.927 323.466 349.1 324.853C349.448 327.632 350.407 331.392 351.877 335.855C354.82 344.789 359.841 356.628 366.239 369.259C372.638 381.891 379.213 392.942 384.674 400.6C387.403 404.426 389.867 407.423 391.902 409.348C392.918 410.308 393.849 411.023 394.673 411.434C395.482 411.839 396.298 412.004 396.99 411.653C397.524 411.383 397.854 410.868 398.045 410.25C398.236 409.633 398.306 408.857 398.283 407.958C398.236 406.158 397.809 403.747 397.056 400.861L396.089 401.113C396.834 403.972 397.24 406.297 397.283 407.984C397.305 408.829 397.235 409.484 397.089 409.955C396.944 410.426 396.742 410.658 396.538 410.761C396.272 410.896 395.83 410.895 395.12 410.54C394.424 410.192 393.575 409.553 392.589 408.621C390.623 406.762 388.203 403.826 385.489 400.02C380.064 392.414 373.514 381.408 367.131 368.807C360.748 356.206 355.75 344.415 352.827 335.542C351.364 331.102 350.428 327.414 350.093 324.729C349.924 323.383 349.911 322.321 350.043 321.553C350.176 320.771 350.438 320.414 350.703 320.279ZM334.205 374.776C334.61 374.571 335.199 374.578 336.033 374.945C336.859 375.31 337.843 375.996 338.956 376.996C341.179 378.992 343.827 382.155 346.656 386.197L347.475 385.624C344.627 381.554 341.928 378.321 339.624 376.252C338.474 375.219 337.4 374.456 336.436 374.031C335.479 373.608 334.544 373.484 333.754 373.884C333.121 374.205 332.703 374.802 332.448 375.546C332.193 376.287 332.084 377.217 332.092 378.291C332.107 380.44 332.594 383.279 333.481 386.595C335.259 393.237 338.67 401.901 343.29 411.022C347.911 420.143 352.878 428.019 357.181 433.38C359.33 436.058 361.33 438.13 363.054 439.414C363.915 440.055 364.73 440.517 365.478 440.751C366.229 440.985 366.957 441.001 367.59 440.681C368.29 440.326 368.726 439.635 368.972 438.778C369.218 437.919 369.294 436.832 369.231 435.57C369.105 433.042 368.414 429.694 367.246 425.804L366.288 426.091C367.447 429.949 368.112 433.209 368.233 435.62C368.293 436.827 368.214 437.792 368.01 438.502C367.807 439.213 367.497 439.607 367.138 439.789C366.813 439.953 366.373 439.982 365.776 439.796C365.177 439.609 364.465 439.218 363.652 438.612C362.026 437.401 360.088 435.404 357.961 432.755C353.713 427.461 348.781 419.648 344.182 410.57C339.584 401.492 336.202 392.893 334.448 386.337C333.569 383.054 333.106 380.31 333.092 378.284C333.084 377.27 333.19 376.464 333.394 375.87C333.597 375.279 333.881 374.941 334.205 374.776ZM529.301 455.34H707.514V454.34H529.301V455.34Z" fill="#1B5C6A"/>
<path fill-rule="evenodd" clip-rule="evenodd" d="M434.026 84H504.569V94.1182H434.026V84ZM434.026 142.098H504.569V151.289H434.026V142.098ZM441.94 160.098H496.655V164.693H441.94V160.098ZM496.655 171.59H441.94V176.186H496.655V171.59ZM441.94 183.078H496.655V187.674H441.94V183.078ZM496.655 194.566H441.94V199.162H496.655V194.566ZM441.94 206.055H496.655V210.65H441.94V206.055ZM496.655 217.547H441.94V222.143H496.655V217.547ZM487.372 336.987H451.223C449.043 336.987 447.276 335.22 447.276 333.041C447.276 330.861 449.043 329.094 451.223 329.094H487.372C489.552 329.094 491.319 330.861 491.319 333.041C491.319 335.22 489.552 336.987 487.372 336.987ZM476.766 348.742C476.766 352.866 473.422 356.21 469.298 356.21C465.173 356.21 461.83 352.866 461.83 348.742C461.83 344.617 465.173 341.273 469.298 341.273C473.422 341.273 476.766 344.617 476.766 348.742Z" fill="#F1F2F2"/>
</svg> 